<mxfile host="app.diagrams.net" agent="Mozilla/5.0 (Windows NT 10.0; Win64; x64) AppleWebKit/537.36 (KHTML, like Gecko) Chrome/135.0.0.0 Safari/537.36" version="26.2.12">
  <diagram name="PÃ¡gina-1" id="q4pPd2tyTimsueJuePiQ">
    <mxGraphModel dx="1509" dy="629" grid="1" gridSize="10" guides="1" tooltips="1" connect="1" arrows="1" fold="1" page="1" pageScale="1" pageWidth="827" pageHeight="1169" math="0" shadow="0">
      <root>
        <mxCell id="0" />
        <mxCell id="1" parent="0" />
        <mxCell id="WZy-HN0xmJJo_rrbQLUv-2" value="&lt;span style=&quot;font-weight: normal;&quot;&gt;&amp;lt;&amp;lt;Context&amp;gt;&amp;gt;&lt;/span&gt;&lt;br&gt;Calculadora" style="swimlane;fontStyle=1;align=center;verticalAlign=top;childLayout=stackLayout;horizontal=1;startSize=43;horizontalStack=0;resizeParent=1;resizeParentMax=0;resizeLast=0;collapsible=1;marginBottom=0;whiteSpace=wrap;html=1;" parent="1" vertex="1">
          <mxGeometry x="50" y="40" width="210" height="390" as="geometry" />
        </mxCell>
        <mxCell id="WZy-HN0xmJJo_rrbQLUv-3" value="+ valorAcumulado: Real" style="text;strokeColor=none;fillColor=none;align=left;verticalAlign=top;spacingLeft=4;spacingRight=4;overflow=hidden;rotatable=0;points=[[0,0.5],[1,0.5]];portConstraint=eastwest;whiteSpace=wrap;html=1;" parent="WZy-HN0xmJJo_rrbQLUv-2" vertex="1">
          <mxGeometry y="43" width="210" height="26" as="geometry" />
        </mxCell>
        <mxCell id="WZy-HN0xmJJo_rrbQLUv-4" value="" style="line;strokeWidth=1;fillColor=none;align=left;verticalAlign=middle;spacingTop=-1;spacingLeft=3;spacingRight=3;rotatable=0;labelPosition=right;points=[];portConstraint=eastwest;strokeColor=inherit;" parent="WZy-HN0xmJJo_rrbQLUv-2" vertex="1">
          <mxGeometry y="69" width="210" height="8" as="geometry" />
        </mxCell>
        <mxCell id="WZy-HN0xmJJo_rrbQLUv-5" value="+ &amp;lt;&amp;lt;create&amp;gt;&amp;gt; Calculadora(): Calculadora" style="text;strokeColor=none;fillColor=none;align=left;verticalAlign=top;spacingLeft=4;spacingRight=4;overflow=hidden;rotatable=0;points=[[0,0.5],[1,0.5]];portConstraint=eastwest;whiteSpace=wrap;html=1;" parent="WZy-HN0xmJJo_rrbQLUv-2" vertex="1">
          <mxGeometry y="77" width="210" height="40" as="geometry" />
        </mxCell>
        <mxCell id="WZy-HN0xmJJo_rrbQLUv-52" value="+ getResultado(): Real" style="text;strokeColor=none;fillColor=none;align=left;verticalAlign=top;spacingLeft=4;spacingRight=4;overflow=hidden;rotatable=0;points=[[0,0.5],[1,0.5]];portConstraint=eastwest;whiteSpace=wrap;html=1;" parent="WZy-HN0xmJJo_rrbQLUv-2" vertex="1">
          <mxGeometry y="117" width="210" height="26" as="geometry" />
        </mxCell>
        <mxCell id="WZy-HN0xmJJo_rrbQLUv-6" value="+ borrar()" style="text;strokeColor=none;fillColor=none;align=left;verticalAlign=top;spacingLeft=4;spacingRight=4;overflow=hidden;rotatable=0;points=[[0,0.5],[1,0.5]];portConstraint=eastwest;whiteSpace=wrap;html=1;" parent="WZy-HN0xmJJo_rrbQLUv-2" vertex="1">
          <mxGeometry y="143" width="210" height="26" as="geometry" />
        </mxCell>
        <mxCell id="WZy-HN0xmJJo_rrbQLUv-8" value="+ mas()" style="text;strokeColor=none;fillColor=none;align=left;verticalAlign=top;spacingLeft=4;spacingRight=4;overflow=hidden;rotatable=0;points=[[0,0.5],[1,0.5]];portConstraint=eastwest;whiteSpace=wrap;html=1;" parent="WZy-HN0xmJJo_rrbQLUv-2" vertex="1">
          <mxGeometry y="169" width="210" height="26" as="geometry" />
        </mxCell>
        <mxCell id="WZy-HN0xmJJo_rrbQLUv-9" value="+ menos()" style="text;strokeColor=none;fillColor=none;align=left;verticalAlign=top;spacingLeft=4;spacingRight=4;overflow=hidden;rotatable=0;points=[[0,0.5],[1,0.5]];portConstraint=eastwest;whiteSpace=wrap;html=1;" parent="WZy-HN0xmJJo_rrbQLUv-2" vertex="1">
          <mxGeometry y="195" width="210" height="26" as="geometry" />
        </mxCell>
        <mxCell id="WZy-HN0xmJJo_rrbQLUv-10" value="+ multiplicar()" style="text;strokeColor=none;fillColor=none;align=left;verticalAlign=top;spacingLeft=4;spacingRight=4;overflow=hidden;rotatable=0;points=[[0,0.5],[1,0.5]];portConstraint=eastwest;whiteSpace=wrap;html=1;" parent="WZy-HN0xmJJo_rrbQLUv-2" vertex="1">
          <mxGeometry y="221" width="210" height="26" as="geometry" />
        </mxCell>
        <mxCell id="WZy-HN0xmJJo_rrbQLUv-11" value="+ dividir()" style="text;strokeColor=none;fillColor=none;align=left;verticalAlign=top;spacingLeft=4;spacingRight=4;overflow=hidden;rotatable=0;points=[[0,0.5],[1,0.5]];portConstraint=eastwest;whiteSpace=wrap;html=1;" parent="WZy-HN0xmJJo_rrbQLUv-2" vertex="1">
          <mxGeometry y="247" width="210" height="26" as="geometry" />
        </mxCell>
        <mxCell id="WZy-HN0xmJJo_rrbQLUv-7" value="+ setValor(real unValor)" style="text;strokeColor=none;fillColor=none;align=left;verticalAlign=top;spacingLeft=4;spacingRight=4;overflow=hidden;rotatable=0;points=[[0,0.5],[1,0.5]];portConstraint=eastwest;whiteSpace=wrap;html=1;" parent="WZy-HN0xmJJo_rrbQLUv-2" vertex="1">
          <mxGeometry y="273" width="210" height="26" as="geometry" />
        </mxCell>
        <mxCell id="ZH9DLkYciPy5FqBt6NoB-1" value="+ setValorAcumulado(real unValor)" style="text;strokeColor=none;fillColor=none;align=left;verticalAlign=top;spacingLeft=4;spacingRight=4;overflow=hidden;rotatable=0;points=[[0,0.5],[1,0.5]];portConstraint=eastwest;whiteSpace=wrap;html=1;" vertex="1" parent="WZy-HN0xmJJo_rrbQLUv-2">
          <mxGeometry y="299" width="210" height="31" as="geometry" />
        </mxCell>
        <mxCell id="ZH9DLkYciPy5FqBt6NoB-3" value="+ getValorAcumulado(real unValor)" style="text;strokeColor=none;fillColor=none;align=left;verticalAlign=top;spacingLeft=4;spacingRight=4;overflow=hidden;rotatable=0;points=[[0,0.5],[1,0.5]];portConstraint=eastwest;whiteSpace=wrap;html=1;" vertex="1" parent="WZy-HN0xmJJo_rrbQLUv-2">
          <mxGeometry y="330" width="210" height="30" as="geometry" />
        </mxCell>
        <mxCell id="ZH9DLkYciPy5FqBt6NoB-2" value="+ setModo(Modo modo)" style="text;strokeColor=none;fillColor=none;align=left;verticalAlign=top;spacingLeft=4;spacingRight=4;overflow=hidden;rotatable=0;points=[[0,0.5],[1,0.5]];portConstraint=eastwest;whiteSpace=wrap;html=1;" vertex="1" parent="WZy-HN0xmJJo_rrbQLUv-2">
          <mxGeometry y="360" width="210" height="30" as="geometry" />
        </mxCell>
        <mxCell id="WZy-HN0xmJJo_rrbQLUv-12" value="&lt;div&gt;&lt;span style=&quot;font-weight: 400;&quot;&gt;&amp;lt;&amp;lt;StateB&amp;gt;&amp;gt;&lt;/span&gt;&lt;/div&gt;ModoSuma" style="swimlane;fontStyle=1;align=center;verticalAlign=top;childLayout=stackLayout;horizontal=1;startSize=40;horizontalStack=0;resizeParent=1;resizeParentMax=0;resizeLast=0;collapsible=1;marginBottom=0;whiteSpace=wrap;html=1;" parent="1" vertex="1">
          <mxGeometry x="254" y="510" width="160" height="90" as="geometry" />
        </mxCell>
        <mxCell id="WZy-HN0xmJJo_rrbQLUv-14" value="" style="line;strokeWidth=1;fillColor=none;align=left;verticalAlign=middle;spacingTop=-1;spacingLeft=3;spacingRight=3;rotatable=0;labelPosition=right;points=[];portConstraint=eastwest;strokeColor=inherit;" parent="WZy-HN0xmJJo_rrbQLUv-12" vertex="1">
          <mxGeometry y="40" width="160" height="8" as="geometry" />
        </mxCell>
        <mxCell id="ZH9DLkYciPy5FqBt6NoB-15" value="+ setValor(Real unValor, Calculadora calculadora)" style="text;strokeColor=none;fillColor=none;align=left;verticalAlign=top;spacingLeft=4;spacingRight=4;overflow=hidden;rotatable=0;points=[[0,0.5],[1,0.5]];portConstraint=eastwest;whiteSpace=wrap;html=1;" vertex="1" parent="WZy-HN0xmJJo_rrbQLUv-12">
          <mxGeometry y="48" width="160" height="42" as="geometry" />
        </mxCell>
        <mxCell id="WZy-HN0xmJJo_rrbQLUv-22" value="&lt;div&gt;&lt;span style=&quot;font-weight: 400;&quot;&gt;&amp;lt;&amp;lt;StateC&amp;gt;&amp;gt;&lt;/span&gt;&lt;/div&gt;ModoResta" style="swimlane;fontStyle=1;align=center;verticalAlign=top;childLayout=stackLayout;horizontal=1;startSize=40;horizontalStack=0;resizeParent=1;resizeParentMax=0;resizeLast=0;collapsible=1;marginBottom=0;whiteSpace=wrap;html=1;" parent="1" vertex="1">
          <mxGeometry x="450" y="510" width="160" height="90" as="geometry" />
        </mxCell>
        <mxCell id="WZy-HN0xmJJo_rrbQLUv-24" value="" style="line;strokeWidth=1;fillColor=none;align=left;verticalAlign=middle;spacingTop=-1;spacingLeft=3;spacingRight=3;rotatable=0;labelPosition=right;points=[];portConstraint=eastwest;strokeColor=inherit;" parent="WZy-HN0xmJJo_rrbQLUv-22" vertex="1">
          <mxGeometry y="40" width="160" height="8" as="geometry" />
        </mxCell>
        <mxCell id="ZH9DLkYciPy5FqBt6NoB-20" value="+ setValor(Real unValor, Calculadora calculadora)" style="text;strokeColor=none;fillColor=none;align=left;verticalAlign=top;spacingLeft=4;spacingRight=4;overflow=hidden;rotatable=0;points=[[0,0.5],[1,0.5]];portConstraint=eastwest;whiteSpace=wrap;html=1;" vertex="1" parent="WZy-HN0xmJJo_rrbQLUv-22">
          <mxGeometry y="48" width="160" height="42" as="geometry" />
        </mxCell>
        <mxCell id="WZy-HN0xmJJo_rrbQLUv-53" value="&lt;span style=&quot;font-weight: normal;&quot;&gt;&amp;lt;&amp;lt;StateA&amp;gt;&amp;gt;&lt;/span&gt;&lt;br&gt;ModoSetValor" style="swimlane;fontStyle=1;align=center;verticalAlign=top;childLayout=stackLayout;horizontal=1;startSize=40;horizontalStack=0;resizeParent=1;resizeParentMax=0;resizeLast=0;collapsible=1;marginBottom=0;whiteSpace=wrap;html=1;" parent="1" vertex="1">
          <mxGeometry x="50" y="510" width="160" height="250" as="geometry" />
        </mxCell>
        <mxCell id="WZy-HN0xmJJo_rrbQLUv-55" value="" style="line;strokeWidth=1;fillColor=none;align=left;verticalAlign=middle;spacingTop=-1;spacingLeft=3;spacingRight=3;rotatable=0;labelPosition=right;points=[];portConstraint=eastwest;strokeColor=inherit;" parent="WZy-HN0xmJJo_rrbQLUv-53" vertex="1">
          <mxGeometry y="40" width="160" height="8" as="geometry" />
        </mxCell>
        <mxCell id="ZH9DLkYciPy5FqBt6NoB-16" value="+ setValor(Real unValor, Calculadora calculadora)" style="text;strokeColor=none;fillColor=none;align=left;verticalAlign=top;spacingLeft=4;spacingRight=4;overflow=hidden;rotatable=0;points=[[0,0.5],[1,0.5]];portConstraint=eastwest;whiteSpace=wrap;html=1;" vertex="1" parent="WZy-HN0xmJJo_rrbQLUv-53">
          <mxGeometry y="48" width="160" height="42" as="geometry" />
        </mxCell>
        <mxCell id="WZy-HN0xmJJo_rrbQLUv-59" value="+ mas(Calculadora calculadora)" style="text;strokeColor=none;fillColor=none;align=left;verticalAlign=top;spacingLeft=4;spacingRight=4;overflow=hidden;rotatable=0;points=[[0,0.5],[1,0.5]];portConstraint=eastwest;whiteSpace=wrap;html=1;" parent="WZy-HN0xmJJo_rrbQLUv-53" vertex="1">
          <mxGeometry y="90" width="160" height="40" as="geometry" />
        </mxCell>
        <mxCell id="ZH9DLkYciPy5FqBt6NoB-17" value="+ menos(Calculadora calculadora)" style="text;strokeColor=none;fillColor=none;align=left;verticalAlign=top;spacingLeft=4;spacingRight=4;overflow=hidden;rotatable=0;points=[[0,0.5],[1,0.5]];portConstraint=eastwest;whiteSpace=wrap;html=1;" vertex="1" parent="WZy-HN0xmJJo_rrbQLUv-53">
          <mxGeometry y="130" width="160" height="40" as="geometry" />
        </mxCell>
        <mxCell id="ZH9DLkYciPy5FqBt6NoB-18" value="+ multiplicar(Calculadora calculadora)" style="text;strokeColor=none;fillColor=none;align=left;verticalAlign=top;spacingLeft=4;spacingRight=4;overflow=hidden;rotatable=0;points=[[0,0.5],[1,0.5]];portConstraint=eastwest;whiteSpace=wrap;html=1;" vertex="1" parent="WZy-HN0xmJJo_rrbQLUv-53">
          <mxGeometry y="170" width="160" height="40" as="geometry" />
        </mxCell>
        <mxCell id="ZH9DLkYciPy5FqBt6NoB-19" value="+ dividir(Calculadora calculadora)" style="text;strokeColor=none;fillColor=none;align=left;verticalAlign=top;spacingLeft=4;spacingRight=4;overflow=hidden;rotatable=0;points=[[0,0.5],[1,0.5]];portConstraint=eastwest;whiteSpace=wrap;html=1;" vertex="1" parent="WZy-HN0xmJJo_rrbQLUv-53">
          <mxGeometry y="210" width="160" height="40" as="geometry" />
        </mxCell>
        <mxCell id="WZy-HN0xmJJo_rrbQLUv-63" value="&lt;span style=&quot;font-weight: 400;&quot;&gt;&amp;lt;&amp;lt;StateF&amp;gt;&amp;gt;&lt;/span&gt;&lt;br&gt;ModoError" style="swimlane;fontStyle=1;align=center;verticalAlign=top;childLayout=stackLayout;horizontal=1;startSize=40;horizontalStack=0;resizeParent=1;resizeParentMax=0;resizeLast=0;collapsible=1;marginBottom=0;whiteSpace=wrap;html=1;" parent="1" vertex="1">
          <mxGeometry x="640" y="169" width="160" height="132" as="geometry" />
        </mxCell>
        <mxCell id="WZy-HN0xmJJo_rrbQLUv-65" value="" style="line;strokeWidth=1;fillColor=none;align=left;verticalAlign=middle;spacingTop=-1;spacingLeft=3;spacingRight=3;rotatable=0;labelPosition=right;points=[];portConstraint=eastwest;strokeColor=inherit;" parent="WZy-HN0xmJJo_rrbQLUv-63" vertex="1">
          <mxGeometry y="40" width="160" height="8" as="geometry" />
        </mxCell>
        <mxCell id="WZy-HN0xmJJo_rrbQLUv-66" value="+ getResultado(Calculadora calculadora): String" style="text;strokeColor=none;fillColor=none;align=left;verticalAlign=top;spacingLeft=4;spacingRight=4;overflow=hidden;rotatable=0;points=[[0,0.5],[1,0.5]];portConstraint=eastwest;whiteSpace=wrap;html=1;" parent="WZy-HN0xmJJo_rrbQLUv-63" vertex="1">
          <mxGeometry y="48" width="160" height="42" as="geometry" />
        </mxCell>
        <mxCell id="ZH9DLkYciPy5FqBt6NoB-14" value="+ setValor(Real unValor, Calculadora calculadora)" style="text;strokeColor=none;fillColor=none;align=left;verticalAlign=top;spacingLeft=4;spacingRight=4;overflow=hidden;rotatable=0;points=[[0,0.5],[1,0.5]];portConstraint=eastwest;whiteSpace=wrap;html=1;" vertex="1" parent="WZy-HN0xmJJo_rrbQLUv-63">
          <mxGeometry y="90" width="160" height="42" as="geometry" />
        </mxCell>
        <mxCell id="WZy-HN0xmJJo_rrbQLUv-73" value="&lt;div&gt;&lt;span style=&quot;font-weight: normal;&quot;&gt;&amp;lt;&amp;lt;State&amp;gt;&amp;gt;&lt;/span&gt;&lt;/div&gt;Modo" style="swimlane;fontStyle=3;align=center;verticalAlign=top;childLayout=stackLayout;horizontal=1;startSize=40;horizontalStack=0;resizeParent=1;resizeParentMax=0;resizeLast=0;collapsible=1;marginBottom=0;whiteSpace=wrap;html=1;" parent="1" vertex="1">
          <mxGeometry x="380" y="40" width="160" height="264" as="geometry" />
        </mxCell>
        <mxCell id="WZy-HN0xmJJo_rrbQLUv-74" value="" style="line;strokeWidth=1;fillColor=none;align=left;verticalAlign=middle;spacingTop=-1;spacingLeft=3;spacingRight=3;rotatable=0;labelPosition=right;points=[];portConstraint=eastwest;strokeColor=inherit;" parent="WZy-HN0xmJJo_rrbQLUv-73" vertex="1">
          <mxGeometry y="40" width="160" height="8" as="geometry" />
        </mxCell>
        <mxCell id="WZy-HN0xmJJo_rrbQLUv-75" value="+ getResultado(Calculadora calculadora): String" style="text;strokeColor=none;fillColor=none;align=left;verticalAlign=top;spacingLeft=4;spacingRight=4;overflow=hidden;rotatable=0;points=[[0,0.5],[1,0.5]];portConstraint=eastwest;whiteSpace=wrap;html=1;" parent="WZy-HN0xmJJo_rrbQLUv-73" vertex="1">
          <mxGeometry y="48" width="160" height="32" as="geometry" />
        </mxCell>
        <mxCell id="WZy-HN0xmJJo_rrbQLUv-78" value="+ mas(Calculadora calculadora)" style="text;strokeColor=none;fillColor=none;align=left;verticalAlign=top;spacingLeft=4;spacingRight=4;overflow=hidden;rotatable=0;points=[[0,0.5],[1,0.5]];portConstraint=eastwest;whiteSpace=wrap;html=1;" parent="WZy-HN0xmJJo_rrbQLUv-73" vertex="1">
          <mxGeometry y="80" width="160" height="34" as="geometry" />
        </mxCell>
        <mxCell id="WZy-HN0xmJJo_rrbQLUv-79" value="+ menos(Calculadora calculadora)" style="text;strokeColor=none;fillColor=none;align=left;verticalAlign=top;spacingLeft=4;spacingRight=4;overflow=hidden;rotatable=0;points=[[0,0.5],[1,0.5]];portConstraint=eastwest;whiteSpace=wrap;html=1;" parent="WZy-HN0xmJJo_rrbQLUv-73" vertex="1">
          <mxGeometry y="114" width="160" height="40" as="geometry" />
        </mxCell>
        <mxCell id="WZy-HN0xmJJo_rrbQLUv-80" value="+multiplicar(Calculadora calculadora )" style="text;strokeColor=none;fillColor=none;align=left;verticalAlign=top;spacingLeft=4;spacingRight=4;overflow=hidden;rotatable=0;points=[[0,0.5],[1,0.5]];portConstraint=eastwest;whiteSpace=wrap;html=1;" parent="WZy-HN0xmJJo_rrbQLUv-73" vertex="1">
          <mxGeometry y="154" width="160" height="40" as="geometry" />
        </mxCell>
        <mxCell id="WZy-HN0xmJJo_rrbQLUv-81" value="+ dividir(Calculadora calculadora)" style="text;strokeColor=none;fillColor=none;align=left;verticalAlign=top;spacingLeft=4;spacingRight=4;overflow=hidden;rotatable=0;points=[[0,0.5],[1,0.5]];portConstraint=eastwest;whiteSpace=wrap;html=1;" parent="WZy-HN0xmJJo_rrbQLUv-73" vertex="1">
          <mxGeometry y="194" width="160" height="34" as="geometry" />
        </mxCell>
        <mxCell id="WZy-HN0xmJJo_rrbQLUv-77" value="+ setValor(double valor, Calculadora calculadora)" style="text;strokeColor=none;fillColor=none;align=left;verticalAlign=top;spacingLeft=4;spacingRight=4;overflow=hidden;rotatable=0;points=[[0,0.5],[1,0.5]];portConstraint=eastwest;whiteSpace=wrap;html=1;fontStyle=2" parent="WZy-HN0xmJJo_rrbQLUv-73" vertex="1">
          <mxGeometry y="228" width="160" height="36" as="geometry" />
        </mxCell>
        <mxCell id="WZy-HN0xmJJo_rrbQLUv-82" style="edgeStyle=orthogonalEdgeStyle;rounded=0;orthogonalLoop=1;jettySize=auto;html=1;exitX=1;exitY=0.5;exitDx=0;exitDy=0;" parent="1" source="WZy-HN0xmJJo_rrbQLUv-6" target="WZy-HN0xmJJo_rrbQLUv-73" edge="1">
          <mxGeometry relative="1" as="geometry" />
        </mxCell>
        <mxCell id="WZy-HN0xmJJo_rrbQLUv-83" value="modoActual" style="edgeLabel;html=1;align=center;verticalAlign=middle;resizable=0;points=[];" parent="WZy-HN0xmJJo_rrbQLUv-82" vertex="1" connectable="0">
          <mxGeometry x="-0.2038" relative="1" as="geometry">
            <mxPoint as="offset" />
          </mxGeometry>
        </mxCell>
        <mxCell id="WZy-HN0xmJJo_rrbQLUv-84" value="" style="endArrow=block;endSize=16;endFill=0;html=1;rounded=0;" parent="1" source="WZy-HN0xmJJo_rrbQLUv-63" target="WZy-HN0xmJJo_rrbQLUv-73" edge="1">
          <mxGeometry width="160" relative="1" as="geometry">
            <mxPoint x="540" y="410" as="sourcePoint" />
            <mxPoint x="700" y="410" as="targetPoint" />
          </mxGeometry>
        </mxCell>
        <mxCell id="WZy-HN0xmJJo_rrbQLUv-86" value="" style="endArrow=block;endSize=16;endFill=0;html=1;rounded=0;" parent="1" source="WZy-HN0xmJJo_rrbQLUv-32" target="WZy-HN0xmJJo_rrbQLUv-73" edge="1">
          <mxGeometry width="160" relative="1" as="geometry">
            <mxPoint x="830" y="592" as="sourcePoint" />
            <mxPoint x="610" y="355" as="targetPoint" />
          </mxGeometry>
        </mxCell>
        <mxCell id="WZy-HN0xmJJo_rrbQLUv-85" value="" style="endArrow=block;endSize=16;endFill=0;html=1;rounded=0;" parent="1" source="WZy-HN0xmJJo_rrbQLUv-42" target="WZy-HN0xmJJo_rrbQLUv-73" edge="1">
          <mxGeometry width="160" relative="1" as="geometry">
            <mxPoint x="820" y="582" as="sourcePoint" />
            <mxPoint x="600" y="345" as="targetPoint" />
          </mxGeometry>
        </mxCell>
        <mxCell id="WZy-HN0xmJJo_rrbQLUv-87" value="" style="endArrow=block;endSize=16;endFill=0;html=1;rounded=0;" parent="1" source="WZy-HN0xmJJo_rrbQLUv-22" target="WZy-HN0xmJJo_rrbQLUv-73" edge="1">
          <mxGeometry width="160" relative="1" as="geometry">
            <mxPoint x="249.99567010309295" y="575" as="sourcePoint" />
            <mxPoint x="375.14" y="392" as="targetPoint" />
          </mxGeometry>
        </mxCell>
        <mxCell id="WZy-HN0xmJJo_rrbQLUv-88" value="" style="endArrow=block;endSize=16;endFill=0;html=1;rounded=0;" parent="1" source="WZy-HN0xmJJo_rrbQLUv-12" target="WZy-HN0xmJJo_rrbQLUv-73" edge="1">
          <mxGeometry width="160" relative="1" as="geometry">
            <mxPoint x="383" y="560" as="sourcePoint" />
            <mxPoint x="471" y="367" as="targetPoint" />
          </mxGeometry>
        </mxCell>
        <mxCell id="WZy-HN0xmJJo_rrbQLUv-89" value="" style="endArrow=block;endSize=16;endFill=0;html=1;rounded=0;" parent="1" source="WZy-HN0xmJJo_rrbQLUv-53" target="WZy-HN0xmJJo_rrbQLUv-73" edge="1">
          <mxGeometry width="160" relative="1" as="geometry">
            <mxPoint x="220" y="582" as="sourcePoint" />
            <mxPoint x="440" y="345" as="targetPoint" />
          </mxGeometry>
        </mxCell>
        <mxCell id="WZy-HN0xmJJo_rrbQLUv-32" value="&lt;div&gt;&lt;span style=&quot;font-weight: 400;&quot;&gt;&amp;lt;&amp;lt;StateD&amp;gt;&amp;gt;&lt;/span&gt;&lt;/div&gt;ModoMultiplicacion" style="swimlane;fontStyle=1;align=center;verticalAlign=top;childLayout=stackLayout;horizontal=1;startSize=40;horizontalStack=0;resizeParent=1;resizeParentMax=0;resizeLast=0;collapsible=1;marginBottom=0;whiteSpace=wrap;html=1;" parent="1" vertex="1">
          <mxGeometry x="640" y="510" width="160" height="90" as="geometry" />
        </mxCell>
        <mxCell id="WZy-HN0xmJJo_rrbQLUv-34" value="" style="line;strokeWidth=1;fillColor=none;align=left;verticalAlign=middle;spacingTop=-1;spacingLeft=3;spacingRight=3;rotatable=0;labelPosition=right;points=[];portConstraint=eastwest;strokeColor=inherit;" parent="WZy-HN0xmJJo_rrbQLUv-32" vertex="1">
          <mxGeometry y="40" width="160" height="8" as="geometry" />
        </mxCell>
        <mxCell id="ZH9DLkYciPy5FqBt6NoB-22" value="+ setValor(Real unValor, Calculadora calculadora)" style="text;strokeColor=none;fillColor=none;align=left;verticalAlign=top;spacingLeft=4;spacingRight=4;overflow=hidden;rotatable=0;points=[[0,0.5],[1,0.5]];portConstraint=eastwest;whiteSpace=wrap;html=1;" vertex="1" parent="WZy-HN0xmJJo_rrbQLUv-32">
          <mxGeometry y="48" width="160" height="42" as="geometry" />
        </mxCell>
        <mxCell id="WZy-HN0xmJJo_rrbQLUv-42" value="&lt;div&gt;&lt;span style=&quot;font-weight: 400;&quot;&gt;&amp;lt;&amp;lt;StateE&amp;gt;&amp;gt;&lt;/span&gt;&lt;/div&gt;ModoDivision" style="swimlane;fontStyle=1;align=center;verticalAlign=top;childLayout=stackLayout;horizontal=1;startSize=40;horizontalStack=0;resizeParent=1;resizeParentMax=0;resizeLast=0;collapsible=1;marginBottom=0;whiteSpace=wrap;html=1;" parent="1" vertex="1">
          <mxGeometry x="640" y="330" width="160" height="90" as="geometry" />
        </mxCell>
        <mxCell id="WZy-HN0xmJJo_rrbQLUv-44" value="" style="line;strokeWidth=1;fillColor=none;align=left;verticalAlign=middle;spacingTop=-1;spacingLeft=3;spacingRight=3;rotatable=0;labelPosition=right;points=[];portConstraint=eastwest;strokeColor=inherit;" parent="WZy-HN0xmJJo_rrbQLUv-42" vertex="1">
          <mxGeometry y="40" width="160" height="8" as="geometry" />
        </mxCell>
        <mxCell id="ZH9DLkYciPy5FqBt6NoB-21" value="+ setValor(Real unValor, Calculadora calculadora)" style="text;strokeColor=none;fillColor=none;align=left;verticalAlign=top;spacingLeft=4;spacingRight=4;overflow=hidden;rotatable=0;points=[[0,0.5],[1,0.5]];portConstraint=eastwest;whiteSpace=wrap;html=1;" vertex="1" parent="WZy-HN0xmJJo_rrbQLUv-42">
          <mxGeometry y="48" width="160" height="42" as="geometry" />
        </mxCell>
        <mxCell id="ZH9DLkYciPy5FqBt6NoB-4" value="&lt;span style=&quot;font-weight: 400;&quot;&gt;&amp;lt;&amp;lt;StateG&amp;gt;&amp;gt;&lt;/span&gt;&lt;br&gt;ModoInicio" style="swimlane;fontStyle=1;align=center;verticalAlign=top;childLayout=stackLayout;horizontal=1;startSize=40;horizontalStack=0;resizeParent=1;resizeParentMax=0;resizeLast=0;collapsible=1;marginBottom=0;whiteSpace=wrap;html=1;" vertex="1" parent="1">
          <mxGeometry x="640" y="40" width="160" height="90" as="geometry" />
        </mxCell>
        <mxCell id="ZH9DLkYciPy5FqBt6NoB-5" value="" style="line;strokeWidth=1;fillColor=none;align=left;verticalAlign=middle;spacingTop=-1;spacingLeft=3;spacingRight=3;rotatable=0;labelPosition=right;points=[];portConstraint=eastwest;strokeColor=inherit;" vertex="1" parent="ZH9DLkYciPy5FqBt6NoB-4">
          <mxGeometry y="40" width="160" height="8" as="geometry" />
        </mxCell>
        <mxCell id="ZH9DLkYciPy5FqBt6NoB-8" value="+ setValor(Real unValor, Calculadora calculadora)" style="text;strokeColor=none;fillColor=none;align=left;verticalAlign=top;spacingLeft=4;spacingRight=4;overflow=hidden;rotatable=0;points=[[0,0.5],[1,0.5]];portConstraint=eastwest;whiteSpace=wrap;html=1;" vertex="1" parent="ZH9DLkYciPy5FqBt6NoB-4">
          <mxGeometry y="48" width="160" height="42" as="geometry" />
        </mxCell>
        <mxCell id="ZH9DLkYciPy5FqBt6NoB-13" value="" style="endArrow=block;endSize=16;endFill=0;html=1;rounded=0;" edge="1" parent="1" source="ZH9DLkYciPy5FqBt6NoB-4" target="WZy-HN0xmJJo_rrbQLUv-73">
          <mxGeometry width="160" relative="1" as="geometry">
            <mxPoint x="650" y="170" as="sourcePoint" />
            <mxPoint x="550" y="177" as="targetPoint" />
          </mxGeometry>
        </mxCell>
      </root>
    </mxGraphModel>
  </diagram>
</mxfile>
